<svg width="91" height="76" viewBox="0 0 91 76" fill="none" xmlns="http://www.w3.org/2000/svg">
<g id="Humidity" filter="url(#filter0_dd_24_42)">
<path id="path" d="M5 7.875C11.75 -1.29167 18.5 -1.29167 25.25 7.875C32 17.0417 38.75 17.0417 45.5 7.875C52.25 -1.29167 59 -1.29167 65.75 7.875C72.5 17.0417 79.25 17.0417 86 7.875" stroke="#1185EF" stroke-width="2"/>
<path id="path_2" d="M5 25.75C11.75 16.5833 18.5 16.5833 25.25 25.75C32 34.9167 38.75 34.9167 45.5 25.75C52.25 16.5833 59 16.5833 65.75 25.75C72.5 34.9167 79.25 34.9167 86 25.75" stroke="#1185EF" stroke-width="2"/>
<path id="path_3" d="M5 42.25C11.75 33.0833 18.5 33.0833 25.25 42.25C32 51.4167 38.75 51.4167 45.5 42.25C52.25 33.0833 59 33.0833 65.75 42.25C72.5 51.4167 79.25 51.4167 86 42.25" stroke="#1185EF" stroke-width="2"/>
<path id="path_4" d="M5 60.125C11.75 50.9583 18.5 50.9583 25.25 60.125C32 69.2917 38.75 69.2917 45.5 60.125C52.25 50.9583 59 50.9583 65.75 60.125C72.5 69.2917 79.25 69.2917 86 60.125" stroke="#1185EF" stroke-width="2"/>
</g>
<defs>
<filter id="filter0_dd_24_42" x="0.194763" y="0" width="90.6105" height="76" filterUnits="userSpaceOnUse" color-interpolation-filters="sRGB">
<feFlood flood-opacity="0" result="BackgroundImageFix"/>
<feColorMatrix in="SourceAlpha" type="matrix" values="0 0 0 0 0 0 0 0 0 0 0 0 0 0 0 0 0 0 127 0" result="hardAlpha"/>
<feOffset dy="4"/>
<feGaussianBlur stdDeviation="2"/>
<feComposite in2="hardAlpha" operator="out"/>
<feColorMatrix type="matrix" values="0 0 0 0 0 0 0 0 0 0 0 0 0 0 0 0 0 0 0.25 0"/>
<feBlend mode="normal" in2="BackgroundImageFix" result="effect1_dropShadow_24_42"/>
<feColorMatrix in="SourceAlpha" type="matrix" values="0 0 0 0 0 0 0 0 0 0 0 0 0 0 0 0 0 0 127 0" result="hardAlpha"/>
<feOffset dy="4"/>
<feGaussianBlur stdDeviation="2"/>
<feComposite in2="hardAlpha" operator="out"/>
<feColorMatrix type="matrix" values="0 0 0 0 0 0 0 0 0 0 0 0 0 0 0 0 0 0 0.25 0"/>
<feBlend mode="normal" in2="effect1_dropShadow_24_42" result="effect2_dropShadow_24_42"/>
<feBlend mode="normal" in="SourceGraphic" in2="effect2_dropShadow_24_42" result="shape"/>
</filter>
</defs>
</svg>
